<svg width="32" height="32" version="1.1" xmlns="http://www.w3.org/2000/svg" desc="Created with imagetracer.js version 1.2.6" ><path fill="rgb(110,98,89)" stroke="rgb(110,98,89)" stroke-width="1" opacity="0.9764705882352941" d="M 14.5 4 L 21.5 5 L 31 11.5 Q 29.8 14.3 28.5 12 L 20.5 7 L 12.5 7 L 7 14 L 11 15.5 L 2 17 L 1 9 L 3 9 Q 1.5 12.8 4.5 12 L 9.5 6 L 14.5 4 Z " /><path fill="rgb(109,98,88)" stroke="rgb(109,98,88)" stroke-width="1" opacity="0.2784313725490196" d="M 15.5 3 L 19 3.5 L 15.5 4 L 15.5 3 Z " /><path fill="rgb(109,98,88)" stroke="rgb(109,98,88)" stroke-width="1" opacity="0.2784313725490196" d="M 9.5 5 L 5.5 10 L 9.5 5 Z " /><path fill="rgb(109,98,88)" stroke="rgb(109,98,88)" stroke-width="1" opacity="0.2784313725490196" d="M 1.5 8 L 1 9.5 L 0.5 11 L 0 9.5 L 1.5 8 Z " /><path fill="rgb(109,98,88)" stroke="rgb(109,98,88)" stroke-width="1" opacity="0.2784313725490196" d="M 11.5 8 L 8.5 12 L 11.5 8 Z " /><path fill="rgb(109,98,88)" stroke="rgb(109,98,88)" stroke-width="1" opacity="0.2784313725490196" d="M 29.5 9 L 31.5 12 L 29.5 9 Z " /><path fill="rgb(109,98,88)" stroke="rgb(109,98,88)" stroke-width="1" opacity="0.2784313725490196" d="M 27.5 12 L 28.5 14 L 27.5 12 Z " /><path fill="rgb(109,98,88)" stroke="rgb(109,98,88)" stroke-width="1" opacity="0.2784313725490196" d="M 7.5 13 L 11 13.5 L 7.5 14 L 7.5 13 Z " /><path fill="rgb(109,98,88)" stroke="rgb(109,98,88)" stroke-width="1" opacity="0.2784313725490196" d="M 11.5 15 L 10.5 17 L 9 16.5 L 11.5 15 Z " /><path fill="rgb(0,0,0)" stroke="rgb(0,0,0)" stroke-width="1" opacity="0" d="M 0 0 L 31.5 0 L 32 0.5 L 32 9.5 L 30.5 9 L 20.5 3 L 13.5 3 L 6 7.5 L 4.5 10 L 4 8 L 0 8 L 0 0 Z " /><path fill="rgb(0,0,0)" stroke="rgb(0,0,0)" stroke-width="1" opacity="0" d="M 13.5 8 L 19.5 8 L 28 13.5 L 20 15 Q 17.9 20.2 22.5 19 L 19.5 23 L 12.5 24 L 5 18.5 L 12 17 Q 14.1 11.8 9.5 13 L 10 11.5 Q 9.3 9.3 11.5 10 L 13.5 8 Z " /><path fill="rgb(0,0,0)" stroke="rgb(0,0,0)" stroke-width="1" opacity="0" d="M 0.5 13 L 1 18.5 L 0 18.5 L 0.5 13 Z " /><path fill="rgb(0,0,0)" stroke="rgb(0,0,0)" stroke-width="1" opacity="0" d="M 31.5 13 L 32 18.5 L 31 18.5 L 31.5 13 Z " /><path fill="rgb(0,0,0)" stroke="rgb(0,0,0)" stroke-width="1" opacity="0" d="M 0.5 22 L 8.5 28 L 19.5 29 L 27 23.5 L 27.5 22 L 28.5 25 L 32 24 L 32 31.5 L 31.5 32 L 0 32 L 0.5 22 Z " /><path fill="rgb(114,99,86)" stroke="rgb(114,99,86)" stroke-width="1" opacity="0.0392156862745098" d="M 8.5 5 L 6.5 8 L 8.5 5 Z " /><path fill="rgb(114,99,86)" stroke="rgb(114,99,86)" stroke-width="1" opacity="0.0392156862745098" d="M 24.5 5 L 25.5 7 L 24.5 5 Z " /><path fill="rgb(114,99,86)" stroke="rgb(114,99,86)" stroke-width="1" opacity="0.0392156862745098" d="M 15.5 7 L 18 7.5 L 15.5 8 L 15.5 7 Z " /><path fill="rgb(114,99,86)" stroke="rgb(114,99,86)" stroke-width="1" opacity="0.0392156862745098" d="M 27.5 7 L 28.5 9 L 27.5 7 Z " /><path fill="rgb(114,99,86)" stroke="rgb(114,99,86)" stroke-width="1" opacity="0.0392156862745098" d="M 12.5 8 L 11.5 10 L 12.5 8 Z " /><path fill="rgb(114,99,86)" stroke="rgb(114,99,86)" stroke-width="1" opacity="0.0392156862745098" d="M 22.5 9 L 23.5 11 L 22.5 9 Z " /><path fill="rgb(114,99,86)" stroke="rgb(114,99,86)" stroke-width="1" opacity="0.0392156862745098" d="M 30.5 9 L 31.5 11 L 30.5 9 Z " /><path fill="rgb(114,99,86)" stroke="rgb(114,99,86)" stroke-width="1" opacity="0.0392156862745098" d="M 9.5 11 L 8.5 13 L 9.5 11 Z " /><path fill="rgb(114,99,86)" stroke="rgb(114,99,86)" stroke-width="1" opacity="0.0392156862745098" d="M 25.5 11 L 26.5 13 L 25.5 11 Z " /><path fill="rgb(114,99,86)" stroke="rgb(114,99,86)" stroke-width="1" opacity="0.0392156862745098" d="M 6.5 17 L 9 17.5 L 6.5 18 L 6.5 17 Z " /><path fill="rgb(110,97,88)" stroke="rgb(110,97,88)" stroke-width="1" opacity="0.7215686274509804" d="M 24.5 6 L 25.5 8 L 24.5 6 Z " /><path fill="rgb(110,97,88)" stroke="rgb(110,97,88)" stroke-width="1" opacity="0.7215686274509804" d="M 22.5 8 L 23.5 10 L 22.5 8 Z " /><path fill="rgb(110,97,88)" stroke="rgb(110,97,88)" stroke-width="1" opacity="0.7215686274509804" d="M 27.5 8 L 28.5 10 L 27.5 8 Z " /><path fill="rgb(110,97,88)" stroke="rgb(110,97,88)" stroke-width="1" opacity="0.7215686274509804" d="M 25.5 10 L 26.5 12 L 25.5 10 Z " /><path fill="rgb(110,97,88)" stroke="rgb(110,97,88)" stroke-width="1" opacity="0.7215686274509804" d="M 1.5 11 L 2 13.5 L 1 13.5 L 1.5 11 Z " /><path fill="rgb(110,97,88)" stroke="rgb(110,97,88)" stroke-width="1" opacity="0.7215686274509804" d="M 28.5 12 L 31 12.5 Q 28.9 15.8 28.5 12 Z " /><path fill="rgb(223,66,3)" stroke="rgb(223,66,3)" stroke-width="1" opacity="0.8431372549019608" d="M 28.5 14 Q 30.8 13.3 30 15.5 L 28.5 14 Z " /><path fill="rgb(223,66,3)" stroke="rgb(223,66,3)" stroke-width="1" opacity="0.8431372549019608" d="M 23.5 15 L 26 15.5 L 23.5 16 L 23.5 15 Z " /><path fill="rgb(223,66,3)" stroke="rgb(223,66,3)" stroke-width="1" opacity="0.8431372549019608" d="M 2.5 18 L 3.5 20 L 1 19.5 L 2.5 18 Z " /><path fill="rgb(223,66,3)" stroke="rgb(223,66,3)" stroke-width="1" opacity="0.8431372549019608" d="M 24.5 19 L 23.5 21 L 24.5 19 Z " /><path fill="rgb(223,66,3)" stroke="rgb(223,66,3)" stroke-width="1" opacity="0.8431372549019608" d="M 30.5 19 L 31 21.5 L 30 21.5 L 30.5 19 Z " /><path fill="rgb(223,66,3)" stroke="rgb(223,66,3)" stroke-width="1" opacity="0.8431372549019608" d="M 5.5 20 L 6.5 22 L 5.5 20 Z " /><path fill="rgb(223,66,3)" stroke="rgb(223,66,3)" stroke-width="1" opacity="0.8431372549019608" d="M 28.5 20 L 30 23.5 L 28 22.5 L 28.5 20 Z " /><path fill="rgb(223,66,3)" stroke="rgb(223,66,3)" stroke-width="1" opacity="0.8431372549019608" d="M 26.5 21 L 21.5 27 L 20 26.5 L 26.5 21 Z " /><path fill="rgb(223,66,3)" stroke="rgb(223,66,3)" stroke-width="1" opacity="0.8431372549019608" d="M 3.5 22 L 4.5 24 L 3.5 22 Z " /><path fill="rgb(223,66,3)" stroke="rgb(223,66,3)" stroke-width="1" opacity="0.8431372549019608" d="M 8.5 22 L 9.5 24 L 8.5 22 Z " /><path fill="rgb(223,66,3)" stroke="rgb(223,66,3)" stroke-width="1" opacity="0.8431372549019608" d="M 22.5 22 L 21.5 24 L 18.5 25 L 18.5 24 L 22.5 22 Z " /><path fill="rgb(223,66,3)" stroke="rgb(223,66,3)" stroke-width="1" opacity="0.8431372549019608" d="M 6.5 24 L 7.5 26 L 6.5 24 Z " /><path fill="rgb(223,66,3)" stroke="rgb(223,66,3)" stroke-width="1" opacity="0.8431372549019608" d="M 14.5 25 L 17 25.5 L 14.5 26 L 14.5 25 Z " /><path fill="rgb(226,62,2)" stroke="rgb(226,62,2)" stroke-width="1" opacity="0.21176470588235294" d="M 23.5 14 L 28 14.5 L 21 16 Q 19.7 19.3 24.5 18 L 23 20.5 L 21.5 23 Q 18.8 25.8 12.5 25 L 3 18.5 L 4.5 18 L 12.5 24 L 17.5 24 L 23 19.5 L 20 19 Q 17.9 13.8 22.5 15 L 23.5 14 Z " /><path fill="rgb(226,62,2)" stroke="rgb(226,62,2)" stroke-width="1" opacity="0.21176470588235294" d="M 30.5 14 L 32 24 L 30 23.5 L 31 19.5 Q 28.6 18.1 30.5 14 Z " /><path fill="rgb(226,62,2)" stroke="rgb(226,62,2)" stroke-width="1" opacity="0.21176470588235294" d="M 1.5 18 L 1 19.5 Q -0.1 22.8 2.5 22 L 11.5 28 L 18.5 28 Q 24.6 26.6 27 21.5 L 27.5 20 L 28 21.5 L 23.5 27 Q 19.8 30.3 11.5 29 L 0 21.5 L 1.5 18 Z " /><path fill="rgb(224,67,3)" stroke="rgb(224,67,3)" stroke-width="1" opacity="0.996078431372549" d="M 26.5 15 L 30 16.5 Q 28.8 21.3 31 22.5 L 29 23 Q 30.5 19.2 27.5 20 Q 23.8 27.3 13.5 28 L 1 20.5 Q 2.3 17.8 3.5 20 L 11.5 25 L 16.5 26 L 23 22.5 L 25 17.5 L 23.5 18 Q 20.9 18.7 22 16 L 26.5 15 Z " /></svg>